<svg xmlns="http://www.w3.org/2000/svg" xmlns:xlink="http://www.w3.org/1999/xlink" version="1.1" x="0px" y="0px" viewBox="0 0 100 125" enable-background="new 0 0 100 100" xml:space="preserve"><g><path fill="#d44646" fill-rule="evenodd" clip-rule="evenodd" d="M50,4.961c-19.883,0-36,16.118-36,36c0,9.94,4.422,18.57,10.544,25.456L50,95.039   l25.456-28.621C81.577,59.531,86,50.902,86,40.961C86,21.079,69.882,4.961,50,4.961z M71.78,62.741   c-5.817,5.816-13.554,9.021-21.78,9.021c-8.228,0-15.964-3.204-21.781-9.021c-5.817-5.819-9.021-13.554-9.021-21.78   c0-16.984,13.818-30.803,30.803-30.803c16.984,0,30.802,13.818,30.802,30.803C80.802,49.188,77.598,56.923,71.78,62.741z"/><path fill="#D44646" fill-rule="evenodd" clip-rule="evenodd" d="M58.926,27.141c-3.813,0-7.06,1.015-8.975,4.002   c-1.915-2.987-5.35-4.002-9.162-4.002c-5.95,0-10.296,4.824-10.296,10.773c0,7.698,17.292,18.818,20.029,21.12   c4.669-4.115,18.887-13.099,18.887-21.12C69.409,31.965,64.875,27.141,58.926,27.141z"/></g></svg>